Coordinates
version=1
nRows=21
nColumns=38
inDegrees=no

Units are S.I. units (second, meters, Newtons, ...)
If the header above contains a line with 'inDegrees', this indicates whether rotational values are in degrees (yes) or radians (no).

endheader
time	pelvis_tilt	pelvis_list	pelvis_rotation	pelvis_tx	pelvis_ty	pelvis_tz	hip_flexion_r	hip_adduction_r	hip_rotation_r	knee_angle_r	ankle_angle_r	subtalar_angle_r	mtp_angle_r	hip_flexion_l	hip_adduction_l	hip_rotation_l	knee_angle_l	ankle_angle_l	subtalar_angle_l	mtp_angle_l	lumbar_extension	lumbar_bending	lumbar_rotation	arm_flex_r	arm_add_r	arm_rot_r	elbow_flex_r	pro_sup_r	wrist_flex_r	wrist_dev_r	arm_flex_l	arm_add_l	arm_rot_l	elbow_flex_l	pro_sup_l	wrist_flex_l	wrist_dev_l
10	1.07722	1.25605	0.52128	0.63969	2.07551	0.93319	0.131606	0.108462	0.0330726	0.547136	-0.401826	0	0	0.467751	-0.316048	-0.0667102	0.570601	-0.227108	0	0	-0.350878	-0.0960876	0.115748	-0.150011	-0.482342	-0.0617177	2.27033	1.5708	0	0	0.424784	-0.674296	0.670563	0.77615	1.5708	0	0
10.01	1.0712	1.25503	0.529005	0.639781	2.07579	0.932794	0.136428	0.108966	0.0321004	0.552316	-0.400638	0	0	0.472459	-0.315757	-0.065535	0.574242	-0.226752	0	0	-0.343064	-0.094514	0.120458	-0.162982	-0.486819	-0.0736088	2.26596	1.5708	0	0	0.417645	-0.67417	0.671467	0.767397	1.5708	0	0
10.02	1.07776	1.24328	0.51057	0.639499	2.07428	0.934177	0.113509	0.125645	0.0530204	0.473623	-0.432906	0	0	0.475305	-0.329197	-0.064669	0.571545	-0.229954	0	0	-0.338947	-0.0829179	0.14154	-0.172162	-0.498978	-0.0882268	2.26128	1.5708	0	0	0.414043	-0.66397	0.668098	0.752003	1.5708	0	0
10.03	1.08045	1.24418	0.509679	0.639542	2.07445	0.934099	0.113458	0.126315	0.0529812	0.474552	-0.438506	0	0	0.47559	-0.328433	-0.0637852	0.573413	-0.23029	0	0	-0.335626	-0.0816028	0.146249	-0.184244	-0.503616	-0.100393	2.25719	1.5708	0	0	0.405209	-0.664707	0.66364	0.747172	1.5708	0	0
10.04	1.08126	1.24457	0.51284	0.63939	2.07494	0.93385	0.114534	0.126761	0.0556327	0.477061	-0.441151	0	0	0.477297	-0.327011	-0.0620106	0.57588	-0.230178	0	0	-0.330457	-0.0795742	0.14919	-0.197922	-0.507437	-0.112451	2.25197	1.5708	0	0	0.394883	-0.664702	0.656973	0.741679	1.5708	0	0
10.05	1.07798	1.24528	0.515794	0.639715	2.0749	0.933648	0.118858	0.125549	0.051645	0.481358	-0.443548	0	0	0.479837	-0.327023	-0.0645682	0.579684	-0.230353	0	0	-0.324985	-0.0795337	0.154878	-0.208745	-0.511034	-0.123157	2.24649	1.5708	0	0	0.384034	-0.665275	0.647064	0.73752	1.5708	0	0
10.06	1.07571	1.24569	0.518893	0.639941	2.07488	0.933583	0.1204	0.124954	0.0471676	0.484299	-0.443099	0	0	0.480794	-0.324728	-0.0603603	0.578452	-0.230886	0	0	-0.319605	-0.0787322	0.159371	-0.218366	-0.513986	-0.132664	2.24065	1.5708	0	0	0.372698	-0.665925	0.635634	0.733792	1.5708	0	0
10.07	1.07753	1.24713	0.520825	0.639855	2.07519	0.933414	0.120131	0.124937	0.0490481	0.486417	-0.442163	0	0	0.48066	-0.322133	-0.0567764	0.579138	-0.230492	0	0	-0.315027	-0.0771691	0.161475	-0.227959	-0.516087	-0.141711	2.23561	1.5708	0	0	0.360957	-0.66728	0.625118	0.731225	1.5708	0	0
10.08	1.08067	1.24936	0.523733	0.639597	2.07576	0.933119	0.120492	0.125294	0.057496	0.490052	-0.441985	0	0	0.480781	-0.318651	-0.0538507	0.581195	-0.22961	0	0	-0.310387	-0.0753917	0.161765	-0.237579	-0.51695	-0.149943	2.23127	1.5708	0	0	0.349688	-0.669704	0.617022	0.729295	1.5708	0	0
10.09	1.08641	1.25134	0.522336	0.639389	2.07605	0.932963	0.11874	0.125023	0.0592806	0.493492	-0.439726	0	0	0.482844	-0.319111	-0.0602156	0.58876	-0.229781	0	0	-0.306971	-0.0729017	0.163513	-0.244654	-0.518303	-0.156489	2.22768	1.5708	0	0	0.339084	-0.673033	0.61083	0.728148	1.5708	0	0
10.1	1.08755	1.25232	0.524765	0.639282	2.07607	0.933009	0.117129	0.124171	0.0562613	0.496057	-0.434796	0	0	0.479708	-0.315118	-0.0527887	0.581875	-0.229704	0	0	-0.302345	-0.0707684	0.166043	-0.250521	-0.51862	-0.161736	2.22361	1.5708	0	0	0.329927	-0.675799	0.605278	0.72567	1.5708	0	0
10.11	1.0906	1.25414	0.525421	0.639121	2.07614	0.932943	0.116462	0.122882	0.0529243	0.498888	-0.431516	0	0	0.478153	-0.312675	-0.0505273	0.580798	-0.229643	0	0	-0.298048	-0.0691694	0.168846	-0.256008	-0.518307	-0.166431	2.21957	1.5708	0	0	0.321594	-0.678518	0.601598	0.723582	1.5708	0	0
10.12	1.05318	1.26455	0.576512	0.639634	2.07762	0.930449	0.151716	0.105805	0.040039	0.580744	-0.392789	0	0	0.484881	-0.292522	-0.0437034	0.582788	-0.225007	0	0	-0.28052	-0.08163	0.159528	-0.267406	-0.508413	-0.169517	2.21658	1.5708	0	0	0.313215	-0.691833	0.611052	0.727276	1.5708	0	0
10.13	1.09194	1.25778	0.531962	0.638847	2.07627	0.932501	0.118204	0.119777	0.0470239	0.508341	-0.414626	0	0	0.480935	-0.30946	-0.0547187	0.58716	-0.229559	0	0	-0.286682	-0.0667354	0.174381	-0.264463	-0.51508	-0.172987	2.21233	1.5708	0	0	0.308084	-0.684495	0.60361	0.718926	1.5708	0	0
10.14	1.07097	1.2713	0.567619	0.639159	2.07729	0.930682	0.144557	0.102502	0.0330038	0.58732	-0.384863	0	0	0.478669	-0.287657	-0.0442935	0.582226	-0.226984	0	0	-0.278224	-0.0791345	0.164296	-0.270473	-0.504549	-0.174822	2.21209	1.5708	0	0	0.299918	-0.696844	0.605757	0.724893	1.5708	0	0
10.15	1.07384	1.27356	0.569019	0.638851	2.0771	0.930571	0.144009	0.100972	0.0294563	0.590452	-0.379948	0	0	0.478441	-0.285292	-0.0450448	0.583318	-0.227134	0	0	-0.274359	-0.0780137	0.166541	-0.271412	-0.502327	-0.176361	2.2095	1.5708	0	0	0.29225	-0.698579	0.600145	0.72374	1.5708	0	0
10.16	1.07637	1.27605	0.571147	0.638538	2.07693	0.930483	0.143501	0.0989566	0.0251123	0.593602	-0.375631	0	0	0.477198	-0.281968	-0.0438381	0.582397	-0.227306	0	0	-0.270256	-0.0773122	0.168442	-0.27188	-0.499206	-0.177483	2.20598	1.5708	0	0	0.284413	-0.699691	0.591139	0.722487	1.5708	0	0
10.17	1.08284	1.27916	0.569293	0.638246	2.07674	0.930486	0.141401	0.0973566	0.0212419	0.596373	-0.372194	0	0	0.475822	-0.280385	-0.0471339	0.584299	-0.228235	0	0	-0.267726	-0.076324	0.169837	-0.270568	-0.496	-0.17722	2.20202	1.5708	0	0	0.276722	-0.701555	0.5837	0.722122	1.5708	0	0
10.18	1.08554	1.28232	0.571047	0.637995	2.07646	0.930521	0.14064	0.0950869	0.0184185	0.599383	-0.369369	0	0	0.472097	-0.275635	-0.0434522	0.579137	-0.2293	0	0	-0.264416	-0.0760644	0.171029	-0.268631	-0.492381	-0.176561	2.19712	1.5708	0	0	0.270037	-0.704028	0.58011	0.722205	1.5708	0	0
10.19	1.08731	1.28536	0.573638	0.637726	2.07619	0.930499	0.140043	0.0932483	0.0159833	0.60226	-0.366505	0	0	0.469409	-0.27145	-0.0414989	0.575578	-0.230294	0	0	-0.260257	-0.0758241	0.17258	-0.266983	-0.488758	-0.17627	2.19127	1.5708	0	0	0.264447	-0.706698	0.580541	0.722191	1.5708	0	0
10.2	1.08985	1.28797	0.576258	0.637352	2.07587	0.930427	0.13952	0.0915373	0.0129348	0.60538	-0.363618	0	0	0.467448	-0.267313	-0.038479	0.572752	-0.230952	0	0	-0.255882	-0.0749104	0.173878	-0.265825	-0.484956	-0.177582	2.18479	1.5708	0	0	0.260265	-0.709035	0.582573	0.721523	1.5708	0	0
